<mxfile host="65bd71144e">
    <diagram id="iUWkLtEkpk3vemYWE0uA" name="Page-1">
        <mxGraphModel dx="894" dy="436" grid="1" gridSize="10" guides="1" tooltips="1" connect="1" arrows="1" fold="1" page="1" pageScale="1" pageWidth="850" pageHeight="1100" math="0" shadow="0">
            <root>
                <mxCell id="0"/>
                <mxCell id="1" parent="0"/>
                <mxCell id="2" value="&lt;font style=&quot;font-size: 14px;&quot;&gt;06. &lt;font style=&quot;font-size: 14px;&quot;&gt;Closuers Example 1 :&lt;/font&gt;&lt;/font&gt;" style="text;html=1;align=center;verticalAlign=middle;resizable=0;points=[];autosize=1;strokeColor=none;fillColor=none;" vertex="1" parent="1">
                    <mxGeometry x="40" y="50" width="180" height="30" as="geometry"/>
                </mxCell>
                <mxCell id="3" value="" style="shape=image;verticalLabelPosition=bottom;labelBackgroundColor=default;verticalAlign=top;aspect=fixed;imageAspect=0;image=data:image/png,iVBORw0KGgoAAAANSUhEUgAAAXkAAADBCAYAAAAq7cCRAAAAAXNSR0IArs4c6QAAAARnQU1BAACxjwv8YQUAAAAJcEhZcwAADsMAAA7DAcdvqGQAADOdSURBVHhe7Z0LcFRFvv+/XrjrCnkZSAgqJsh4Vx6riTyyARXZIVVJ4a4lCfDf8N/VrT8wUIK1D9FsCBSFMTcK+yiBCmO4tateci+QYLkrNakaZlkfkBtRJ7gQvOsAiaAmGYh56rIXrv/uc/q8Zs5MZiYPZobfp+rA6e7TfV6Tb//61326b8rMzPwGBEEQRFzyT+J/giAIIg4hkScIgohjhu6uuX8XcpdME4EBtO4tRscXIngdubmgDtlzx6PjcCFaPxSRsUB+Cd4ozUGCpwFWm0tEXmeUa5ICbTho3YU90r7MWvt2LLPI+/2Ndjxa7pEDUcUVHGnoRef2NJT4PtZ1TmwuFjeAXrxfdR8cThHM34cNpfOR4tmP52ylIvLGJaPiJFbnJcmBG+mZWAfwkQ3YuXw8akSUP9dQe+Ai5rPH0/tfd+DerWNE/PVliJb8KmQxgedC2vQc30ZL4Bdh0gYHsu4XQUKCi+0bFYpYGeFpLpdxs68TiYPhrMWj1o2wVrnRL6L07LGxNJZ+0ETb5fNuQWW+iIAFlYfCOPewwP/42pH+X6n+Ao8q/JgJfGvdVDxn5ZtO4EeU1Sg8dB4/NnkOOfbz2Ow6iUL1mQU+drRpL79Pek41jb0iZpjhFe6hfcgQQRUe7zqPDRWrRYRc4Wy2V4nQCOMaD4f3EjbtviIi/Fm9tQvzMRHPF2RGjcBzhibyk+/EeJxFVxRaylcaiqWKJ6aseI4iqCNgxXMrm4uxstmqRcII098DzFxoXvmMBsof306zP7z8KUiBB6cCPQvnSuzk4j/KFms3e2aWhZqgEYweVrHMeNi/Ahglnn3yDhxPa8eRNSLCB0vaV+ht+XYQS//6MFb8HxmTU0UT3hdm4W8uwNc6103SSgemXH4RpxuOyi6e6c1ovlwguVQ4/SdEmoLBDaSl83Km3yUilzgwaYm8q+Xn5y7CJCnW3H1kKMNwDG8hPAnUNeCWVUoZZ3HmufWsET841ooteAq1cKTZVPeFp04TU27VFnrteAklKMtLlOJ80wO5PYKVzdOU8mCxMctZ3kWoLp916+HK70Ll0lrIR1thdy3A5aptKBsOq7bFg/a8AqyF0c2jYLh+9KFJOS+/ruwuNKXlIDeZxdd5MLM4Bwk9bp9rLWDtAxl/d9EVrPgecHx7gGa2JZ2JvDncon5EFNzdWImd5boSJDdOOt61foBZrhXI4nE9x1GzdCXapQN8XBsM3lp4jb0vfbkoZlZ7sbxrOEfLKXTnLUcOu2q3HGPAWLbOxcQt3uxOvJ82H3OSWXzdKViK5yPFcG2s9aJcM8Pv3oaEsWw/l47BNaY7t+IWk2ItWM2sdhkP3rTmi2dwCh7vfOSzFg1/jn74lK08b/maZuNSYzrmsGfW3bgfnhkr5OejuuZ4a6mMxfF9hqkragxKjqSgdfEAVr8czG0TXURkyXN/d+5mhxDhaZjO9/m2cpV8QCjcVYTsCQ2ym+fwWSTMLYL65yAJfAYTX8UNVKhWAL37ePhFtHZD5ybS0oG9aJXi6tEhYvTwa5+eegLNIl/zCSBr1S7t3KxtkrWKV1DKeaZhSsEikTY4CXk2Scgla7mujf2BrWfipsHTy9KOSemVjX2w5JcwmZIJ5vbg6MvW53WVb1PzGaz1aPHp4z0caExFjpm7gd3DclZ5Kddc2QjkrtOeCSw5mODk95aI3OJUOKwN8CRbwP7ueSIqDxUgQ73nBlaZ2IyuoDV/h6V3HI76PAqpqc+ERBYFCx7h+3zTNf/dNtmF82aA9yHnK8SlKn7cfrQmywIkwURrWV4nEyjFDaQIjlJuJd5n1rrmJprqI7R/gZOJ0izTZ7YP+azCVPLVsGc2Z53OxWFh7RYnv+4kzCnmFRG/tlnIkZ4ZF7MVSGHiKuffzyqTsmFzBeXYZ+OUuC7pmVhW6MrmrrF0JqxKuu6elRYTq8ilylItQxF4GXfdcaRkm7loWNnZH6jl8nKyip2sklSwYE6aQ4pPyVuhPh+ltZRjZwLvZcIu5WfvJm2FwTWk8vK34Un6CovUH2j0E5HIK64QLs6ypSsLZtO+vfIBodDNhFY5/sNmJsgZuGUyDzBresE0ZpnvHgH//ipM5p2xx7Yw+07mSsNuSchTdf79jsOKZX8U3Z8MIGGC1qIYFGY9q5Zk9Rlmh6TiTtW3yuBWqBBf11se9Cen4m4pFAK6ssPOy+CVhOaT1/vJRx5+vRm6Ck3FWQubzvL2uy/2vA4IcexvbDC2BPLnYSaTgJfU/C5WmbDKL1s7y+rb/gF4x/pZXYpvWRIVyVoU4hCmW6a1TrEES3GKFZVyu14YLOYiHSLtb51CChN0P/cEE8TXdBUCP647OR3Snw+HiaRTPLPuxgPGlkD+w+yqjuOgmr+UVSa9yDIVzvBx2/SibPZMNGGNCOdf4Ekr1PVXKJTiNf27q/4ArUhnvzkR5q2dOpGuez4yVZhlYb8BNX8Ne6esMjB1DY1FZ+9XSPeThGuYkgZ0fh49vniFKBxCOQ23sDbbQKfOdTOsDODrYa88gpGICVoLEv0t7wk3A0Pyv5u7MEYCo09+mFwxocLu1eFVLHA9ckesWvmoo3hCwJKKhOQclKkV13ad20eG+0lHDqMvn1voBstUsiZFC8GsM3EwWBnvehULXI/cESuVyzfVzREC3D3FWhzcHaLk17uUhozoIFU21S0lwYS46jjAWg5yut7SDhUuwJ2mFYXcYa1sOpfRYEj9MrrWHN90bh8jY3DBC6Tfdk2EgRd2t6G1oQuwZ2LxyyIyiohCkT+Lr7vF7ogwXrQYFORKZeTow2XNUL2h2dPchdzieSIks9ZuQy6z/SqVyifACJ6A8JaRWnGJTeem8njHib3rQHW+aP5PxZteJqwRCL27uRNzih8WIRnJtcCscdWlwYQzrD8ZgztEbGG2YEzhfnXDSCUTV5filmFbTWM6E9YIhJ5Z6XJ/hQZ3vz3CrXFRtuQqEmmhoc8rNl3/ioa/xf7sk5nIKkgFbG0BO2WvJyMo8pqYSn5wtaNzMGQXyaQlej+5L0fxNas4J00Pow9AYi+6zrF8C7bhZhFzc0EBJnWfwBcjMApnrb0Alh4P2O94VPjE24eEGfP8XSKhoLpIZD93IDtmSFQ3oCnNgpkiqOLtEK0bdu51YVjy3B3GLPmnAgwb5dR8/i0g7Sqzfa8vX3h9u+5r0M4swkHdJNUH8H7aLP/34b0gBIhZ9evCsOS5G4NZ8svM/M0qD2LT7+tRX/8qNi0UUSHTi0uKsDOr3mjJG2n/rFPs6fB0olvtPwgEdzGlwzJDBBV6OqE00nPsYVjy3AXUwyz5kIZjXkV60jh0ck+1AX8LP1oYIZHfi9bDZ5lQyx2yvIP1DBPXUOE+/+YTGVqHLttm+nR+9u6rR8ddRf7pvNNWiuOjY3gnKt+vwyRR4fCO2zNdc5Et8mXPbceZnZqPfshYClTXwbI0/SiQweCjREQ+9oeh+M8DjXs3w1VeiyZm36juC3uIcl+9Cwc9mVgm5bNhgrOB2TUafPSLVJ7kSlGOUzqUw7luVuG1sGOUEQyMPXXMclefGTt3SziWvAs20dkq55c3Q8er1FF2CSvCtrD4iAy56c6FKkW4GEw740xQO3bFtpp3wvpYhm6b3DGpHGNedg3c7Jml6J4Z73zsVvOVYWJLOJZ8KV4Tna3Keflm7Hh9B2//bYD9Px63TpVjZDQ3keTiUa5BEUfuXuKdvaWi3PxOvK//Ifm4cjZLnbDGjlVexkHekayUEcDS5/0QSNbMwPZyh1R5KW6oB7zHw7Dka+BYKne26q/P9H0E6MiPZmiCsmFEGgrIR85EzagWgrN6qxebZozD80G/ViQMPLED9T9Ix4cv/QTPvyXibnjkL1rTj5j73rlvvtAbPV+6KkShT54ghpearak4jkvYsDX6mtLRx+PYUV9PAm/CC7svYr43I2DnKu//SUq7KkLRA4k8cQMwBiXLM9D5vS7UxtD45uvDK3i6qAhFRSTwBqwDKEybiOefVHrz/JGMibR2tDa04aMoMijIXUMQBBHHkCVPEAQRx0Qk8lOnGrrcCYIgiCiFLHmCIIg4hkSeIAgijiGRJwiCiGNI5AmCIOIYEnmCIIg4hkSeIAgijiGRJwiCiGNI5AmCIOIYEnmCIIg4hkSeIAgijiGRJwiCiGNI5AmCIOIYEnmCIIg4hkSeIAgijiGRJwiCiGNI5AmCIOIYEnmCIIg4hkSeIAgijiGRJwiCiGNI5AmCIOIYEnmCIIg4hkSeIAgijolpkb+5oA65mx1i24UkEX+9SVrJr6cOkyaLiBjBWrEFLtd22NeJiLhiFaofq8PziSIoweN2wSZCAbltF5yPOdgWwrEEEWXErshP3gbLXKB1byGanuPbevSKpBGFnXdmFFUo0YEFlYfMK4e19u2s4tiCynwREeTYkWMRnl9chIwzu7GpT0RJ7MXBMxkoXrwN3xcx/rCKIHcaPE2FyH99PewiliBihRgW+VQkdLeg+wsRjiJ69/FKpxgdUXhtwXCVb4PVuhG2ahExTPT3ADMXWkRo9Pn+PU9iHk5g58dHRYzGnz8uRl3vXGy4Z5GI8SHxTmTgLJo/F2GCiDFuyszM/Ebsh8zUqVNx/vx5Ebo+cFdN9t0taN65BVdEnMT9u5C7oEsXvwpZmwvw9V5ZdHk+C3bjwoRnMP0u6QB0HC5E64fyvgQvY8k0EWAideJFnG6YxsopwiQRpzHAWhNC0LmVv2ouEqT4szjj17rg16Iro/uEz3Vmo2tvF6YoZRjSg8Gt4xKg+hgmlBawEKcNB627sEfa5+k2THBuhDt7O5ZJB/ShqWobypx83wq7S8mnj5fhbpynUAtHmk3kBTx1cmXALXUlTk9/ox2Plnuk9EKvG+15qXBL16Ndi1KZ8PLL8hQ/iu7869bDld2FprQc5Caz+DoPZhbnIKHHjcqltXBJx+uvXTuvBnfJFKDrSLGPFa8jcRteX5yKBjNLPVgaQcQAMWfJy/5uB7LnjgdS5iJb+ORnFgSwxExImPsMplx+UXLzNJ8YwKQF23CzSJMFPkPnBipkAs8twL1o5eG9J9AvCbiSrrPYv9iC0+oxvizCpA1FGM8qDDnfi2gFu/6Vq0Q6Zxqmr0rFBSm9Hh3s/ibfL5IGJRG5pQtwuWqjZI0f9GRimd0q0mQsxVxw7SKdHV+spLtgY3FWawP08qgnIc+m5q1s7IMlv4TJK7DHxvPZ0cSsdS78PJ1vRqF9DwcaU5Fj5qJh5SxnFYiSr7IRyF0nly1hyZEqBPl6U+Hg15hsgVVy//AKowAZTNjl/A2sMrEZXUG3ZcPS1wJXIIHn9B1FS980ZN8mwgQRR8ScyMuuEFmcJUtXEkRFiEPkXL16/JWTLehPSRUiz4R4wTRmue8eflfL/UXISjmLC+p1HkVHHasM7srW+fd5q0Cx/vei6xwwPj30ystTp1nge5rbgLRJmlhyPA2q+JqmB0OX1/WWB/3JqbhbCoUGz5MhKgYDzlrYdBWCX9nMaj8gLP7+xgbRMhHkz8NMuPGSmt/FKhNWAWVrZ/l+Ugb70XyKP4uwOUfxKXvoGUkmzzoxFQl9XfhEBAki1ojp0TXDzzTcksKktjOMCiMcurtCcL0MIz5C7GmWHRwS1btgVV0eowATc4dXscD1yB2xfFSPtJXmCHdXCFiYACfnoEzJyzbN7SNzdxJr8YXAJ70DSEjSXHSSm4aPqLmjGflHtgxSSRBE9EIib+Asvu4WuyOB2mIQ8M5jsTsi9ESXBbqnuQu5xfNESGat3YZcZo1XCneNtcpt4uoKAvfPK3mVzaZVXVy8Q4FXBv29Z0WI0bcFj71eiPyL2XAGHX1DENFNfIq83v2ywayzNBBH0f3JACYtCTJE8otPMcAs/tSQfeWCD5vRwfJNUfsOFNdQ/QgM/bTCXpyJ/pb3RslS9+BTLzOsdW4SU6ob0JRmwUwRVPF2iOtkVv26MCz56jPwMEv+qQqTnl/Bn3vbgaQ7BxHpRbiTvfD2XpMWXF8X+hPDc00RRDQRfyL/4XqcOTcN06UO2Wdwy7F6Jq6hc6WhGM0nMkR+s07dvWg9fJZVBEq69tGT+nGWNDpGuQalwuAdt/UYmPuMyPcMsrq0voHhgHesym4LuTPS2PkZBD6KReSzSB24fF8/tn1w9tga4LEUiHK24w1T4fXA1QIkJIsgY08ds9zVfDZMaAnHkucdxnJnq3Jevhk6Xj9vhidxLpYF61RNXIQZiTRMkohPYnYIJaHHf1giofH9e+rwqzta8K8BfOu2eQ4U9L6Ix0zG0dMQSiLWIZ88Eff8+ePdeA/mHzzxCqA4yfxDKYm+T9GODNxp7M8liJiBRJ64ATiKTUfq0T79Sb+5a5ZNb0dd0NEze7GuqR3zFtPcNURsQu4agiCIOIYseYIgiDgm5kSetyIIgiCI0CBLniAIIo4hkScIgohjSOQJgiDiGBL5OCGj4iQ2u87Lm71KxA4T+SV4Q/2idD3Wiujh5wVc3foRrpl9nbrOqd2f6yQK9V/j5u/DhpG47xhlRH8LUcw3hR/hfwpXixChQCIfJ7SX34fnrFNR0zgCiyA6a/FoJJOHhcVqXPvZCnzTtBNj/KYXqMKPiy1orZsq3eNz1vvg0C1qMnKsRuGh8/ixyTz4OXbfyibwsaPNiP4WGPzeN1SYiKmoiPVpUoUzShXNTQ4HbsrdhKuzRQQhQSJPRAXfFG7A/+A4xjpqRIyO/ClIgQenAk3Z4FyJnVz8baUiYnTo7gEsC8lyNNDDKpYZDyNDBEeXZzH25eP45gdH8L8ihojBj6Gu/4dY3GIrwxx1ki0P3rTmwy1C3Mp5RJ2bqxfvVylWJ8+3Hqh2YGLpCmRJ6ca8ksXqUtIYPcdRs3Ql2kUwcNka3HJaneYwETxj2d2NldhZbiKoweBum1K+OpOyrKBAitfNHulpMEz3a1zeT2A4hrtpCnHTy/eaWPEMbiEWw+dZyeifid898Xz5nahhlcOy0vmsomB49uueTeB3aXzWGso5ePoD3uPozkvHKSmPXNZE51S8Jioj6V3kKfOZau+Lxy/DKZZ3Pnsf7Jx1wCOspWK4NumelQswf9eDEepvwfhMfK8bUguK35NvvIqSXzzv973zMbFZl0d/DYb70sqWr2k2LjWmYw47R3fjfnhmrGDvRn/vof2G//fHrbh26Xn8s4nB8PiOevxw6nn8sehpvCLi4h2y5MNCiIKX/agltwHfNOHhP+hH0pgwi7SaRmBOqRM5Ih1IYuFCXKri6ZV4v8eCB3RN2xz7CqSwH65atk7gBy87GPy69WXvZwJTNkyuBSvsTODb1aX/5Nko1VkoWQXwVB7QpC5LyOL4HPC6SgCzZ+Nq9yn8k4/A83uW/MqSKFjwiImf2W2Tn8ebgSbcTJ6P1aXpeJffdxUTZUuh6mLJqFgf8F3K5fJ3JAuRcoxRVP4CJxOlWWbPMX8f8rFLzSe9r3X7VAs3JW8W+x3Iv4FHeEUkXdts+X3yPobidCZu4rx1nWG868HJsc9mFZNyT/vRalmh/RbYuZfldbLKTknXKi3FDcSfNRdYJd23EnHXHUdKtpmLhol09gdavjoPsor192XBHF4hsPiUvBVShfmmJ0m0lkL/Df9TiwfXvrMIYVuvcQqJfDisW84sC2Z5+VlGnCrkMwuk1akJc3v5LumPWC8CrXWKVVIDd0svUtJ0qxExUkybuqGVHZD8h9mfz3EcVAWqlIlTL7JM/xDDw1qxABbdEn3S9L91bUiYMU9a6s+60IKEHg9cwgqVlh30WbHqm/R04PIF3CTCCoqo8D962coW4mD6/APBLUEh3s6/wNOThImaIcl0RQhrhLS/dQopTBj93hl7V6/pKgR+XHdyOsSs1Ox2HKplrn+vnIyFs4DGXZrlXn0g9HcdAm6bVpnx38Ip9nhTbte7nYZ4Lv6c07TKVKMUr+nfXfUHaEU6MtTj2LuqE+msFetUf1OMcH7DX3RiTEq6qci/8nQRim4gK55DIh8GGbczMerpRODlX3txKZBFGQJuG7PswCxPYbEarZQhlG1JRwq3aBVLmG2mze5IURf98Mf1WRcTdW3Zv7XZmUzgzhjcPd9MHMZr8aXnFNyKWLKK1bHUaJm+6dFaCKadiYPBBPpd7yzk+Akatzy1571ZcReFwOS0JGbJlml5XXqX0jDAXSZq2T5uKXY/OyULW6QfMqnABoU9Z2enaX8Fd3Np59a5jAYjnN/w59xgYCJPC7NLkMiHQftnnWIvED5WIqZhYlh/nLIISdYqa76nsD80TeiHWDb37yuWcEQWcRB8FgS33p4q9hieLvSrC5FsxzJLGw7qXTWMmy6NzCiQUFDcPUrzPxKhdzd3Yk7xwyIkk2NnwswsT/WZc3eMSAsFgztEbErlNCQkV5B+pJKJq6s6X0vzMmGNROiZld6dt9zQSpJcjhZdi4y7ikRaSIT6G75tCrPiO3ETLQIjQSIfDrx5yayJZaZCIDd7s3RN94yKQmT5NjtDxXlBJwpDLDvodWvwTqn6+nrseEJEhIDrLQ/6k3OwXK2MrFielwiPU14kfG0x+zNvtGvrr/p22jJu6mSV5wT+h3k9OYtLPWJXpQbtXvbcB3NrcXdK2iwY6mCO94JwwzCrfl3olry7mfuk15u4O/Q8iE2/5+/rVWxaKKJCRtcqZFa9WQezwhde/wqYx5m7FfVwd0o6LDNEUEHXEuZ9UCFb8iH+hiUmp+NaNxN5EdQj/8YjeWaxC4l8WJTiNWHxaU1OreOIW4WS5aM2Jzvxpq7zNDh85IDWFOVNWd7JpFhvwcvWXANSE9ayQi5D7aA0u+7Qx3Tz0THSh1DSCJpMLNN/FMXH0Fe5keGz9KCyQhVf3g8+y/P5fVD1wQcYmzIf18Ie36w9My5UiosjNGvcx53CXSLe/X6jNdw2uWNSOc68bN6/ws6va1nxzsduNV8ZJraEYclzS1rqbNVfn2/H6zt4+298kfLxuNUwZ98gvwXuXvLwAQCiXD4aRmfJq53dYjP7DUv9QTq3YqBx8LwfAsmaS6W93CEJtZKPj04K3ZIP/Tf8vzMsGPPfR01F/txl+Zl9Z/6DcsQNAA2hJEaUtfbtKPQa15vlcctgHGbJv1a88p1TuPl3JaZ/nIQJT+xA/Q/S8eFLP8Hzb4m4G53bavE/a9IxZuticwv2BnxmZMkTI4gFd6aJXRUrcpjV3e9tE2GZmxw78c/MOrxKn6WHwOPYUV9PAu/HC7i6Zj5u+pOZwN+4z4wseWJk8f1QitHfaLTsNQb5KIoggsBbg1fBjAWzr6ZvYEjkCYIg4hhy1xAEQcQxMSfyZMUTBEGEDlnyBEEQcQyJPEEQRBxDIk8QBBHHxKTI2+Y54HyMbfNWiRiCIAjCjJgUeft7hch//UW8l1SEapppjiAIIiAx7K45CtfFAWQkLRJhgiAIwhfyyRMEQcQxJPIEQRBxTEyL/J9725FwxyJ8X4QJgiAII7FtyX++HvktqfjVYw68fg/55gmCIHyJaZH//j11cN7RjPzXC/HYx0dFLEEQBKEQ8z75/t6zYo8gCILwhTpeCYIg4hgSeYIgiDgmhkV+Eax3jEd7L/niCYIgAhGTIi/PXfMM5uEEDtIycQRBEAGJueX/CIIgiNAhnzxBEEQcQyJPEAQRx5DIEwRBxDEk8gRBEHEMiTxBEEQcQyIfV1hhd22H61AJ2yMIgrhRRX76NtSW/AILRJBg5JfgDdd6rBVBDQsqD7GKw5DGK5MtqMwXQYIgohay5OMKF2zWjbAurWV7w0t/Typy1okAQRAxQwx+DJWHZ0rWIsX9OE7f9QqW3MHjvkLzoXV40SsdIFvqD2WKgC4t7RfYu/Q+jJMTdLThsH0L9unKLjsjpyxYUI0nU95CyeH/FPlTcNTegpm2QmTxA/pOYnftb3BMHPtTvIqjKWvFdQGtb2tlBYdbx9PhrupCYWkOEnhUjxuVimBzS7s0FQ7rGeS4Cph9bUy3VmxBWV4ijwU8DbDa9DIfrGyeJsoz0Iemqm0oc3JL3oYJLW5kzABeUvMswGUpnR/rU4Z6fp63BGjpQm4eex8s/iAKsIwd6KnbCFu1fLjh2tm7OGjdhT0iJPM4dtT/EFPP/xFFT78i4giCCIWYteSzHnoFi7r3oMT+OA5fHIfsef9HTuBC/FAaE/bHpbSSt73IXroNK3ma9zdYJcW1yeLM96WNC3yoZGKJbSG6pfIdaE28D0umiyTGuFlr1evafeorZOWE4xbKxDJJyJk1brWjCTl4qkIvvyxdElee3gBPcg6WC+vaVb6NxW1EZWOfHOGHvmx9XmH9V7nRLwksT+ebIuCCz2rh8FpgNXHRrLWzCkTNx8q2FMCuWv2JyJ3RhUpePosv9Nqla7Rki16DdeuZwHep561sTMUy6lMgiGEjdt01Fx1YdaxR2t13jol28m2SmC74l7uBU69qVv0ZB5r7MjFTJ8RDpfVtpdXwnzh9EUhPzZPiJXTXdexvn+CrxBTZ4g8Jbj0rVqwHrpY+JKQpLRIZT50ivi64PUDG7f42uDn6ssPNK7OnmVnkxf7yu8emt7z9y/Y4FfdRGxzlLFHH2uxMdk9aflf5MVYB+VYmr+DpoiKy4gkiAmJW5FvP/afYY5zZghLhMslKGSdZ07W2V8S2FtmKJ2BYaMNpnftl3+HHVVEfEdIm6azaNriFi4Ozx7YRj/qI5ohS3YCmtOn+nbPMGnfxUT1i4+6Y0LDgzjT2b7GW12XqOiIIIlLisuP1q1Oyu0S/heYXj0K8HcIKjgZ46yIVhRWTRJjB+wqKuTWuuGs24mCY9Y4+r7z5uIoIgoiYuBN57roZN+sneIZZiAG51I2vEu/GggDHqO6X6dvw5Cz/btpRgYnnU3mJ8DSPksQ7O9COzEFH0HB3SvsMCzJEWKYPlxVhZ1Z96Ja87JKyFJsN3dTDO17rUf/7TXhQxBAEERrxZ8lz143U2aq4a/gmOl4VvL/B709Bd4yS3ogXnScBxd2T043Dp76SUkaHROSWCrdFaQ7adSNQgqOMZd8uj1KxFMhl2MPpvnTBVtemc50EGgfvgtubKI/Q4Thr4fDorju/C01hWPK8w1jqbJXOKTa/jtdz+LKX/Zf0HTy0UI4hCCI0aD75qMF3WCKh5/Ed9fjhhA/xu58+j3dEHEEQgxOXPnkijnhiB+rrSeAJIlJI5Ino5g9Po4gPnySBJ4iIIHcNQRBEHEOWPEEQRBwTkSVPEARBxAZkyRMEQcQxJPIEQRBxDIk8QRBEHBOxyK/e6kVrQxtaDwxgtYgjCIIgooshd7y+sLsNhd47cO/WMSKGIAiCiBaG7K559mQKktKuihBBEAQRTZBPniAIIo4hkScIgohjhi7yZ8eid9rf8YIIEgRBENHD0EXeNR73bh+LQj7SZvcVEUkQBEFEA0MX+TU9aLUBOwsykfXkzSKSIAiCiAaGxyfvHYsasUsQBEFED9TxShAEEceQyBMEQcQxQxb5F+7rRq93rAgRBEEQ0UTEIq/MXbNiWgocNKUBQRBEVEKLhhAEQcQx5JMnCIKIY0jkCYIg4hgSeYIgiDiGRJ4gCCKOIZEnCIKIY0jkbyTyS/CGaztcdquIiAKUa5K29VgrohWsFVtEWpRdt4FrqD3QhiNrRFDHQ4uW4PVfPIAnRDi6mIJf/+JHeL1oighrDO265XL/fVGSCJvw3QdY+T/Cr78rwjFB4PviK+SZvf9oIEZFfhEmbXAg634RJEaedevhOlQCM5k1CLHY3qiwiNRBcNbiUetGWKvc6BdRelzl22Bl6ZWNfSJGB78mn3NJ1zLKlcELuy9ivjcDi18WEcT1YdJM/Pt1qlCfPTQR6Uu9qI1CO4Qs+RsJRVBtLhExjHgaJDFWtkfLPSJhhOlh4j9jnmnlMyqs6ZE+CNwfbAbW3i9xTuxGFxfwy9/8Bx6rvyDCPgzxujsu9Yo9E/76Lh5j5/7lX0U4hjC9Lz7l+qFvYb5tAKtFVLQwtI+h7t+F3CXTRADoP/EiTjcclQOTt2HmqrlIkEPAuXo07dsr7/N805vRfLkA2XPHS1GGvJKl/gyyUkQQZ3HmufXgjzZppQPT75Jj9RjzB4dbe2V5iSLUh6aqbShz8n0LKpm1iupjmFBawEKcNhy07sIeaZ/BrcfiTBFg5220j46g8fNmn0Gld4F67fpzr7VvR6HXjpdQoqZ76jbCVi3tSunLhMHrd83ByubulNIc7T2qaM9Fep5px8wrD152fhcql9ZCTrXC7lqAy+ozF0jnSYVD/6x1mJ5DlN3kzcGEZvle/Y7zeV/qM5HumeVNy0FuMvsN1Hkws5jdZ4/b51qV34HZu+ZumotIP5IZgRWfhPJVSzBbbflfwBu/eRd/4LvclZH7JX679zTeltK4m+BefLnvMCo6dOl/YnXMynsh/QW1MdFUxdqn7N6PfMp6AIY/IUPeEYRfd77RNXTOaRR67ib6eY564fhAuWcOt9SV+1Xhz60N3/W9Jwlj/sBl8+f1IPCnj3DrSqUc3fsImWC/h8exo/6HmHr+jyh6+hURNzpEbslLAp+B1r2FaHpO3jSRXYUsJvADh5W0enTcVYSZBYtEOoOFsyc0yOmHzyJhbhF71DI3FzyJrC5WKYhym4TAc3r38fCLaO1mNapavv7cg8DEZDlqVYuzshHIXad3QyQit5SLEE+3o6knE4WqO4D90RenskrhOlisHEuBLGD83FVuIK8ElfkijZGQZ1PTuXvDwu5Vua89Nvl6Dwa6XH3ZdW2srALZP65Y/ywOXAD5vrSZi/H1wFXnRka2mS3P3hervOTrle/BUqzz+1tY5eDkz4S9c/ZeHdYGeJItsErPlFf4Bchgwi7nb0A7e772dVJOGevfMSspBR9E4KZ5aNGDmP2lbM3KW5iCknQvfr7yVhzhefd9hIHMe1E+SU56aNG9TLCUcg/jA9yLNaofWVjvYnuDvdZRQ1jvyv36tRKYiD+Kd9Rjfst+4rN/MBMPSYlMiH/A7st9WE538kqJCzV/buKe+HOQxFk5h7GCCFw2JwmzWQXy5T45/Y22KXjUpK8iOGNwtGUcLPdF1+JJEYo8s7QXTGPW8250fCGidNxcUIBJ3SfwxYciAnvRyoX87kVQG7UsvVmx7D9sRgcycMtkOShxV7Yq+sMKEy2bTphdb3nQn5yKu0WY46lTrEwPXC19SEjTLEFeCcxcqPmAQ+f/4aXDh3HYd/uPrXhYHDEoXGQVC9X5Hk73JGKC/lJ06Wb3FRR92dVn2J2n4k5dBTIorJLQ++QNYjjS8GeRtsBQ4cm4YNNb/r73xe75gGjp9Dc2GCut/HmYCTdeUn8rLhzgFae+Mpl2FUm9Y1mZEZKZOQT/sSJwjI4L+Lg3CbemSwl4++i7mrix494+24vxqckiHMV0nMYvj2qukLdbWjGQdKtsWU+agnuSevFxi0j/axurJLR7HpRgZQvOObVK4Q9/Y5XIrUm6SiA0aj7/FpB21cRl8wqeLioadSueE6HIT8MtKcBAZxDruetTRFqfXWkoxplz0zB9swO5bDO0AIYMt9B0nYSmrohAMNGQLGibyO8/GiQw/4anlizBEt/tR1vxF3FEJGTcrql8f8t7ws3AkCzwUbS2fXzyiptodPCwSrnLtPLlbir1XetcL4NiSUVCcg7K1LzbdS4+mdW3/UPshc/bRw/L1iIf3TLYSBQzelvxtk7IK/bq3B5SB6RcLt80F0W0w90m2nW/rnfNdPQyQzAJ98wQ9/LdTCbQF/DXkH36QcoOhE8lEBJ8zeukq6H/zkaBCEX+LL7uFruBSL1Ts9oZN6dniL3QkN0yfKvHwNxnhk3o19ptyGUWmup2CDCqIyCK+4JtlY2pWBay0A+DJW9C+2ej6C6KZpiV3p5XoHO7QfLPL7PwvgOl8mkIz+o2uKfEpmsZSFbbEPhDveJWeBcdOUvCF3pTpuDXTMBUt4bkmtAs2GjmiaIlmI2P8Ftx3bL7RaEHX7LbGM+ekyTS+VOY5R26iyt42QGIpON5qK27ESBCkT+K7k8GMGnJLlOXypWTLehPmYvJ6hDHVZg8dzw6jm2JwLo3q1CO4usuZrBMXyXCYeLtEBYvs+rXhWPJG3F9xi4iZIbXkrdWlCA3uQ3u0bKYPV3oV/3VYaK6jWQ/98hYOdydkoqZM0RQoacLn4jdtfYwzs1dO8ySfyrYUNBhs9pkATOgWpHcAjXrVAyOOgKEWfVrhtuSX7gJr9bXo/73m/CgiBo22IOQO4hlH7xqbX/3XqNIs81vZI5k7U/BdwONvQ9Uth+somSVyMDZC+L40JFad6bLofKO1xF6ZoMQcccrd6k0n8hQXSoGt8oXW3B67wmMX6KkFWH8iRfRqvrogyGPgVfKzN38jNQJ69ux2rtP7sz1O/cg7KljlrvqP7ZhQksYljwfkaFrvrukTthRdIno3AdleV3GUT9B4aNE5Hx8hA3voOX7IY9l57AWzEu8k7pUuf8QWzDVu3DQk8laPDwPe95OozXNrW2pPMltphynlK251iRXifLeAoyD5/0QSNZcKq7yY5JQK8+s0OsOw8JywSY6W+X7lTdDX4Pr2zjV243CrddERKj4uA5+wazML9/F/1V8xn99V+fKWYJbm0w6KQNyAW8wy/2ufFH2ylvx8XBb8m+9jf/mRUbizgjCH95l1nWm/JGUdN9nddb2Xz+SOpB/rj4zeTN+THUBv3Re0O6dlaF0RgctW6DlewCTWEtIfR8hcw2LZnwFz0mz4bTn5Io86Tt4aKEcM1rQfPKxgt9QRCIqWNOD1qXA/oJkPCuiYoknin6ExV3hC9rjO+rxwwkf4nc/fR7viLjw8BkWOhh+w0oZ0pBMRDDU0Rde6fLKdIjj9vlvYfFYPL98vIklPxzPLDIituQJgmC8nIz9Z7uxYnd0DZsLiUkzsThT59oJhSd2oL5+6GLFh3nehR5cDEXgGQ9N9B8d9MS/TInMbz4SWAfw0dJ/4LjdROCH6ZlFClnysQJZ8lHMUD6KGmV8PkgaiMgtERm81fCoOhpZ/zFSKMjWtvbxGMPwkddQGLolz+eumX0yOt8/iTxBEEQcQ+4agiCIOIZEniAIIo4hkScIgohjSOQJgiDiGBJ5giCIOCYORb4KP3adx2ZpO4nCSD7DD4j25ajLtcVk1sPhY/VWL1pHcew1P99HYX+5SRBEtBOHIl+K16xT8Zx1P1pFzPDBP3WPYKKrcFnTg03f+1bw1YaGmZqtSej83sWoXaeSIIjIIHdN1HEFR5Z2w3NotD+TvxmLt/N1KnvwgoghCCL2GdrHUOuc2FysTXLV3ViJneXio978fdhQOh/qCn6e/XjOVirv83zZH6DGW4jVefInbIa8WI3CQ2WYo37J7MGb1ny4RSho2SrcbVOIS1X3waFfZo6RUXFSPa9f2SHB3TYmS9gx9MvsGZcW5PB8vjMhGo/hbpNNaUnIMrPiAy1lJ03kNciyhb7n5tPomnw9y7/cK/TegXu3jhExGtLcG1PP449FT2P0lz4gCCISIrfkJYFPx/tV3DUib5pIM4FlItxdp6TtR6tlBTZU6NZLYeHVaQ45vc6DlLzlyBFJGRXrMcfLhFuU+5xBhEMoOxjsulfndTJhl/PXNKbjkUP7EN5s9+ZI85enaXOQS0sLlmqzNUpT3SqLa4h57LVVqDjBZrFjIh1sKbugyxbK59aWsmNbgOkRnj2ZgqQZf4+6xYgJgoiMCEWeWdr5FmZ97/KzkjkZFYXI6jkOpzrXeSle40I+42FNTFl6jWJ9V3+AVqQjQ9+RaZmtir6ekMoOQk62Ba11WqXRXu5Aa/Is5Ay5E9WK5XmJ8Dg18XSV10pimyNNT2tFDtNcT7NIlZbvM67sBFxFetI4dJ4VQQODLGXHCL5sIZAwYx67ikEIMkf6K08XoYiseIKIKSIU+Wngk8J1f2Y2oabAewHtYjdc2svvw5seCx4Ro2T8rPSIy16NjDQgq1gZfcO3FcgSqUOnD5cD9si24TITdXWNUL6GaHIfTvM50BWsTOTFrhkRL2XH2GNj1j2rNpW51QOuweoai078A1MGrQ0IgogFIhT5s7jEBCsoaVMMlnXG7aGuuCvjtmnumO68MqPQD7HsVtXVo2z+fvvI8FlYG5mYoOtX+NTL/lMWvihl7ZTGWqNPXxJYc4a8lB07umypyFvlRkZxAKGXKppv4YKZL4cgiJgjQpGvgbull1nETlOXSvtbp9CdPB/5qohUIT8vCa3OlRFY4MYKZWhlB79ulYiWN3PBzVTXkl+iukSsFQtg6XHjAHctsfhCg0hvxKPlvjLNRL73K6RPE0FfIl3KzhdnR+BnFWSNSt7xWl//KjaN8so2BEFEzpBG1xhHqQQfXWNI4522+Z2oWaoIs34kjO/IGobv6JnBytaN+JHpxfu6UTa+1y31D6jXwuAi/9T9GN/rM8m/z+gWGePoGOPoGuMIF2OaTH+j3SD20uiaGeNMVpcxjo7pb3SjPc8iRvjw0TV8aT1ltI1s+ZelHRMLT/uP6vE9r0Kw0TUP/upV/GzOeAy8/zv85F9He+kDgiAigeaTHy2YJf9GaSoc+mGNUpwFp3WVhDROvoFVN4euwwIEfHWbjVfhCLSUHV/h5gfp+PCln+D5t0QcQRBRTeRDKInwsKQiQewqWBdaWFwXPjX0B9yMxYdSYBn1j5JY5bLxEjpNP8ISK82TwBNEzEGW/Cji767x/WBJI+hHUSMAP98GpJq6aQiCiF1I5AmCIOIYctcQBEHEMSTyBEEQcQyJPEEQRBxDIk8QBBHHkMgTBEHEMdEv8mt60HpgwDj1Lf9oxzeOIAiC8CO6RZ6L+dJ/4Ljd5xN/13g4vJewaRTXQCUIgohFoljkr6HWdgn4r1SUmMyI+OyTd+B4WjutSUoQBBGEIXwMJU+KlatMJGZYTo5PiDUd7qouFJbmyJ/z+y435zPZl9+EWdxNs3isyURdOoIcI0+mBfoMnyCIG5qILXlrRQFQrUybKy9I8ZRuuTk+l/oyaUIunt4AT3IOlqvTA7NKoDgVTdJSdebT7r5wXzd6W74dWOA5L38bnqSvsIgWuCAIgjAlYpF3le/SzZxottwcn4JXmZdFnmvduNRdImYuNEzkouMapqQBnZ8PNo9K4PnX3/nXn6CoiKx4giBubCL3yfNpctWl6LajLC9RJISCC7YqN5BnE/n1C1Jz+FqnYjcoY3DBC6Tfdk2ECYIgCD0RirwVdmn5Om31/8rGPpEWIs5aPKrmTcUyg9BzC13sBiVUi58gCOLGZEija9o/E350ZtU/FZYlb8T1WZfYUwjVQucW/zh0nhVBHbzjtb6+HjueEBEEQRA3IBGKvAsHmOVuKRbumtJUnA7Hkucja3SuHpfUCWucV/3ZkylI+l5/8IUz1vwdlt5xOGoyxPKdL+QlsafOelz6nyAI4kYkiueTv4baAxcxq8V8vVElPf1IgGXyxDqtnX8qwtN/EHEEQRA3GENy14wsY1Binwh8rwu1JkMkX9h9EfO9GSYC/yA2/b4e9STwBEEQMbAylNkHT3y6AxuwM9iHUgRBEAQt/0cQBBHPRLG7hiAIghgqEVnyv/3db6T/y361SfqfIAiCiE7IkicIgohjhmTJ//xnv5D+JwiCIKITsuQJgiDiFuD/A8LK95aiAJXoAAAAAElFTkSuQmCC;" vertex="1" parent="1">
                    <mxGeometry x="80" y="80" width="377" height="193" as="geometry"/>
                </mxCell>
                <mxCell id="4" value="" style="rounded=0;whiteSpace=wrap;html=1;" vertex="1" parent="1">
                    <mxGeometry x="60" y="347" width="660" height="513" as="geometry"/>
                </mxCell>
                <mxCell id="5" value="Global Execute Context (GEC)" style="text;html=1;align=center;verticalAlign=middle;resizable=0;points=[];autosize=1;strokeColor=none;fillColor=none;fontSize=14;" vertex="1" parent="1">
                    <mxGeometry x="89" y="300" width="210" height="30" as="geometry"/>
                </mxCell>
                <mxCell id="6" value="&lt;ol style=&quot;font-size: 14px;&quot;&gt;&lt;li style=&quot;text-align: justify;&quot;&gt;first line execute - create memory allocation and stack for GEC&lt;/li&gt;&lt;li style=&quot;text-align: justify;&quot;&gt;ans = printFullName( ) line execute -&amp;nbsp; create FEC for printFullName&lt;/li&gt;&lt;/ol&gt;&lt;div style=&quot;text-align: justify;&quot;&gt;&lt;span style=&quot;font-size: 14px;&quot;&gt;&lt;br&gt;&lt;/span&gt;&lt;/div&gt;&lt;div style=&quot;text-align: justify;&quot;&gt;&lt;span style=&quot;font-size: 14px;&quot;&gt;&lt;br&gt;&lt;/span&gt;&lt;/div&gt;&lt;div style=&quot;text-align: justify;&quot;&gt;&lt;span style=&quot;font-size: 14px;&quot;&gt;&lt;br&gt;&lt;/span&gt;&lt;/div&gt;&lt;div style=&quot;text-align: justify;&quot;&gt;&lt;span style=&quot;font-size: 14px;&quot;&gt;&lt;br&gt;&lt;/span&gt;&lt;/div&gt;&lt;div style=&quot;text-align: justify;&quot;&gt;&lt;span style=&quot;font-size: 14px;&quot;&gt;&lt;br&gt;&lt;/span&gt;&lt;/div&gt;&lt;div style=&quot;text-align: justify;&quot;&gt;&lt;span style=&quot;font-size: 14px;&quot;&gt;&lt;br&gt;&lt;/span&gt;&lt;/div&gt;&lt;div style=&quot;text-align: justify;&quot;&gt;&lt;span style=&quot;font-size: 14px;&quot;&gt;&lt;br&gt;&lt;/span&gt;&lt;/div&gt;&lt;div style=&quot;text-align: justify;&quot;&gt;&lt;br&gt;&lt;/div&gt;&lt;div style=&quot;text-align: justify;&quot;&gt;&lt;span style=&quot;font-size: 14px;&quot;&gt;&lt;br&gt;&lt;/span&gt;&lt;/div&gt;&lt;div style=&quot;text-align: justify;&quot;&gt;&lt;span style=&quot;font-size: 14px;&quot;&gt;&lt;br&gt;&lt;/span&gt;&lt;/div&gt;&lt;div style=&quot;text-align: justify;&quot;&gt;&lt;span style=&quot;font-size: 14px;&quot;&gt;&lt;br&gt;&lt;/span&gt;&lt;/div&gt;&lt;div style=&quot;text-align: justify;&quot;&gt;&lt;span style=&quot;font-size: 14px;&quot;&gt;&lt;br&gt;&lt;/span&gt;&lt;/div&gt;&lt;div style=&quot;text-align: justify;&quot;&gt;&lt;span style=&quot;font-size: 14px;&quot;&gt;3. ans() ; execute - call FCG for ans&lt;/span&gt;&lt;/div&gt;&lt;div style=&quot;text-align: justify;&quot;&gt;&lt;br&gt;&lt;/div&gt;&lt;div style=&quot;text-align: justify;&quot;&gt;&lt;br&gt;&lt;/div&gt;&lt;div style=&quot;text-align: justify;&quot;&gt;&lt;br&gt;&lt;/div&gt;&lt;div style=&quot;text-align: justify;&quot;&gt;&lt;br&gt;&lt;/div&gt;&lt;div style=&quot;text-align: justify;&quot;&gt;&lt;br&gt;&lt;/div&gt;&lt;div style=&quot;text-align: justify;&quot;&gt;&lt;br&gt;&lt;/div&gt;&lt;div style=&quot;text-align: justify;&quot;&gt;&lt;br&gt;&lt;/div&gt;&lt;div style=&quot;text-align: justify;&quot;&gt;&lt;br&gt;&lt;/div&gt;&lt;div style=&quot;text-align: justify;&quot;&gt;&lt;br&gt;&lt;/div&gt;&lt;div style=&quot;text-align: justify;&quot;&gt;&lt;br&gt;&lt;/div&gt;&lt;div style=&quot;text-align: justify;&quot;&gt;&lt;br&gt;&lt;/div&gt;&lt;div style=&quot;text-align: justify;&quot;&gt;&lt;br&gt;&lt;/div&gt;&lt;div style=&quot;text-align: justify;&quot;&gt;&lt;br&gt;&lt;/div&gt;&lt;div style=&quot;text-align: justify;&quot;&gt;&lt;span style=&quot;font-size: 14px;&quot;&gt;&lt;br&gt;&lt;/span&gt;&lt;/div&gt;" style="rounded=0;whiteSpace=wrap;html=1;align=left;" vertex="1" parent="1">
                    <mxGeometry x="60" y="387" width="470" height="473" as="geometry"/>
                </mxCell>
                <mxCell id="7" value="&lt;div style=&quot;font-size: 14px;&quot;&gt;wiindow : { }&lt;/div&gt;&lt;div style=&quot;font-size: 14px;&quot;&gt;this : window&lt;/div&gt;&lt;div style=&quot;font-size: 14px;&quot;&gt;printFullName: f&lt;/div&gt;&lt;div style=&quot;font-size: 14px;&quot;&gt;&lt;/div&gt;&lt;span style=&quot;font-size: 14px; background-color: initial;&quot;&gt;ans :&amp;nbsp;&lt;/span&gt;&lt;span style=&quot;font-size: 14px;&quot;&gt;uninitialized&lt;br&gt;&lt;br&gt;&lt;/span&gt;&lt;div style=&quot;font-size: 14px;&quot;&gt;after 2 line execute&lt;/div&gt;&lt;div style=&quot;font-size: 14px;&quot;&gt;&lt;br&gt;&lt;/div&gt;&lt;div style=&quot;font-size: 14px;&quot;&gt;return function printName&amp;nbsp;&amp;nbsp;&lt;/div&gt;&lt;div style=&quot;font-size: 14px;&quot;&gt;&lt;br&gt;&lt;/div&gt;&lt;div style=&quot;font-size: 14px;&quot;&gt;ans: printName&lt;/div&gt;&lt;div style=&quot;font-size: 14px;&quot;&gt;&lt;font color=&quot;#66ff66&quot;&gt;firstName : 'suraj'&lt;br&gt;lastName :'jagtap'&lt;br&gt;&lt;/font&gt;&lt;/div&gt;&lt;div style=&quot;font-size: 14px;&quot;&gt;&lt;br&gt;&lt;/div&gt;&lt;div style=&quot;font-size: 14px;&quot;&gt;after 3 line execute&lt;/div&gt;&lt;div style=&quot;font-size: 14px;&quot;&gt;print firstName and lastName&lt;/div&gt;&lt;div style=&quot;font-size: 14px;&quot;&gt;&lt;br&gt;&lt;/div&gt;&lt;div style=&quot;font-size: 14px;&quot;&gt;&lt;font color=&quot;#ff3333&quot;&gt;# when return function of printName() that time it can be carry the lexicen variable (parent function variables) with it , so it can print both&lt;/font&gt;&lt;/div&gt;" style="rounded=0;whiteSpace=wrap;html=1;align=center;" vertex="1" parent="1">
                    <mxGeometry x="530" y="387" width="190" height="473" as="geometry"/>
                </mxCell>
                <mxCell id="8" value="&lt;font style=&quot;font-size: 14px;&quot;&gt;Code Execution Phase (CEP)&lt;/font&gt;" style="text;html=1;align=center;verticalAlign=middle;resizable=0;points=[];autosize=1;strokeColor=none;fillColor=none;" vertex="1" parent="1">
                    <mxGeometry x="100" y="357" width="210" height="30" as="geometry"/>
                </mxCell>
                <mxCell id="9" value="&lt;font style=&quot;font-size: 14px;&quot;&gt;Global Memory&lt;/font&gt;" style="text;html=1;align=center;verticalAlign=middle;resizable=0;points=[];autosize=1;strokeColor=none;fillColor=none;" vertex="1" parent="1">
                    <mxGeometry x="545" y="357" width="120" height="30" as="geometry"/>
                </mxCell>
                <mxCell id="10" value="" style="endArrow=none;html=1;fontSize=14;exitX=0;exitY=0;exitDx=0;exitDy=0;" edge="1" parent="1">
                    <mxGeometry width="50" height="50" relative="1" as="geometry">
                        <mxPoint x="530" y="388" as="sourcePoint"/>
                        <mxPoint x="530" y="348" as="targetPoint"/>
                    </mxGeometry>
                </mxCell>
                <mxCell id="16" value="" style="shape=partialRectangle;whiteSpace=wrap;html=1;bottom=1;right=1;left=1;top=0;fillColor=none;routingCenterX=-0.5;fontSize=14;" vertex="1" parent="1">
                    <mxGeometry x="758" y="387" width="80" height="200" as="geometry"/>
                </mxCell>
                <mxCell id="17" value="" style="rounded=0;whiteSpace=wrap;html=1;fontSize=14;gradientColor=none;" vertex="1" parent="1">
                    <mxGeometry x="758" y="537" width="80" height="40" as="geometry"/>
                </mxCell>
                <mxCell id="18" value="Stack" style="text;html=1;align=center;verticalAlign=middle;resizable=0;points=[];autosize=1;strokeColor=none;fillColor=none;fontSize=14;" vertex="1" parent="1">
                    <mxGeometry x="768" y="587" width="60" height="30" as="geometry"/>
                </mxCell>
                <mxCell id="19" value="GEC" style="text;html=1;align=center;verticalAlign=middle;resizable=0;points=[];autosize=1;strokeColor=none;fillColor=none;fontSize=14;" vertex="1" parent="1">
                    <mxGeometry x="773" y="542" width="50" height="30" as="geometry"/>
                </mxCell>
                <mxCell id="20" value="after all execution completed GEC pop/ Remove from stack" style="shape=callout;whiteSpace=wrap;html=1;perimeter=calloutPerimeter;fontSize=14;gradientColor=none;direction=west;" vertex="1" parent="1">
                    <mxGeometry x="720" y="596" width="120" height="140" as="geometry"/>
                </mxCell>
                <mxCell id="32" value="" style="rounded=1;whiteSpace=wrap;html=1;fontSize=14;" vertex="1" parent="1">
                    <mxGeometry x="59" y="465" width="470" height="160" as="geometry"/>
                </mxCell>
                <mxCell id="33" value="argument :[firstName,lastName]&lt;br&gt;firstName : 'suraj'&lt;br&gt;lastName :'jagtap'&lt;br&gt;printName : f&lt;span style=&quot;background-color: initial;&quot;&gt;&amp;nbsp;&lt;/span&gt;&lt;span style=&quot;background-color: initial;&quot;&gt;&amp;nbsp;&lt;br&gt;&lt;/span&gt;" style="rounded=1;whiteSpace=wrap;html=1;fontSize=14;" vertex="1" parent="1">
                    <mxGeometry x="329" y="506" width="200" height="120" as="geometry"/>
                </mxCell>
                <mxCell id="34" value="&lt;ol&gt;&lt;li&gt;execute - function printName&lt;/li&gt;&lt;li&gt;execute - return function printName&amp;nbsp;&lt;/li&gt;&lt;/ol&gt;" style="rounded=1;whiteSpace=wrap;html=1;fontSize=14;align=left;" vertex="1" parent="1">
                    <mxGeometry x="59" y="506" width="270" height="120" as="geometry"/>
                </mxCell>
                <mxCell id="35" value="&lt;font style=&quot;font-size: 12px;&quot;&gt;Function Execute Context (FEC)&lt;/font&gt;" style="text;html=1;align=center;verticalAlign=middle;resizable=0;points=[];autosize=1;strokeColor=#006EAF;fillColor=#1ba1e2;fontSize=14;fontColor=#ffffff;" vertex="1" parent="1">
                    <mxGeometry x="98" y="446" width="200" height="30" as="geometry"/>
                </mxCell>
                <mxCell id="36" value="&lt;font style=&quot;font-size: 14px;&quot;&gt;Code Execution Phase (CEP)&lt;/font&gt;" style="text;html=1;align=center;verticalAlign=middle;resizable=0;points=[];autosize=1;strokeColor=none;fillColor=none;" vertex="1" parent="1">
                    <mxGeometry x="94" y="476" width="210" height="30" as="geometry"/>
                </mxCell>
                <mxCell id="37" value="&lt;font style=&quot;font-size: 14px;&quot;&gt;Local Memory&lt;/font&gt;" style="text;html=1;align=center;verticalAlign=middle;resizable=0;points=[];autosize=1;strokeColor=none;fillColor=none;" vertex="1" parent="1">
                    <mxGeometry x="373" y="475" width="110" height="30" as="geometry"/>
                </mxCell>
                <mxCell id="38" value="" style="rounded=1;whiteSpace=wrap;html=1;fontSize=14;" vertex="1" parent="1">
                    <mxGeometry x="58" y="696" width="470" height="160" as="geometry"/>
                </mxCell>
                <mxCell id="39" value="argument :[]&lt;br&gt;firstName : 'suraj'&lt;br&gt;lastName :'jagtap'&lt;br&gt;printName : f&lt;span style=&quot;background-color: initial;&quot;&gt;&amp;nbsp;&lt;/span&gt;&lt;span style=&quot;background-color: initial;&quot;&gt;&amp;nbsp;&lt;br&gt;&lt;/span&gt;" style="rounded=1;whiteSpace=wrap;html=1;fontSize=14;" vertex="1" parent="1">
                    <mxGeometry x="328" y="737" width="200" height="120" as="geometry"/>
                </mxCell>
                <mxCell id="40" value="&lt;ol&gt;&lt;li&gt;execute - print firstName lastName&amp;nbsp;&lt;/li&gt;&lt;li&gt;it check firstName and lastName in the function if it not found then check in lexicen environment .. if found then print it ..&lt;/li&gt;&lt;/ol&gt;" style="rounded=1;whiteSpace=wrap;html=1;fontSize=14;align=left;" vertex="1" parent="1">
                    <mxGeometry x="58" y="737" width="270" height="120" as="geometry"/>
                </mxCell>
                <mxCell id="41" value="&lt;font style=&quot;font-size: 12px;&quot;&gt;Function Execute Context (FEC)&lt;/font&gt;" style="text;html=1;align=center;verticalAlign=middle;resizable=0;points=[];autosize=1;strokeColor=#006EAF;fillColor=#1ba1e2;fontSize=14;fontColor=#ffffff;" vertex="1" parent="1">
                    <mxGeometry x="97" y="677" width="200" height="30" as="geometry"/>
                </mxCell>
                <mxCell id="42" value="&lt;font style=&quot;font-size: 14px;&quot;&gt;Code Execution Phase (CEP)&lt;/font&gt;" style="text;html=1;align=center;verticalAlign=middle;resizable=0;points=[];autosize=1;strokeColor=none;fillColor=none;" vertex="1" parent="1">
                    <mxGeometry x="93" y="707" width="210" height="30" as="geometry"/>
                </mxCell>
                <mxCell id="43" value="&lt;font style=&quot;font-size: 14px;&quot;&gt;Local Memory&lt;/font&gt;" style="text;html=1;align=center;verticalAlign=middle;resizable=0;points=[];autosize=1;strokeColor=none;fillColor=none;" vertex="1" parent="1">
                    <mxGeometry x="372" y="706" width="110" height="30" as="geometry"/>
                </mxCell>
                <mxCell id="44" value="" style="rounded=0;whiteSpace=wrap;html=1;fontSize=14;gradientColor=none;" vertex="1" parent="1">
                    <mxGeometry x="758" y="487" width="80" height="40" as="geometry"/>
                </mxCell>
                <mxCell id="45" value="FEC" style="text;html=1;align=center;verticalAlign=middle;resizable=0;points=[];autosize=1;strokeColor=none;fillColor=none;fontSize=14;" vertex="1" parent="1">
                    <mxGeometry x="773" y="492" width="50" height="30" as="geometry"/>
                </mxCell>
                <mxCell id="46" value="OUTPUT :" style="text;html=1;align=center;verticalAlign=middle;resizable=0;points=[];autosize=1;strokeColor=none;fillColor=none;fontSize=14;fontColor=#FFFFFF;" vertex="1" parent="1">
                    <mxGeometry x="55" y="895" width="90" height="30" as="geometry"/>
                </mxCell>
                <mxCell id="47" value="" style="shape=image;verticalLabelPosition=bottom;labelBackgroundColor=default;verticalAlign=top;aspect=fixed;imageAspect=0;image=data:image/png,iVBORw0KGgoAAAANSUhEUgAAAcoAAABaCAYAAAA4jRYrAAAAAXNSR0IArs4c6QAAAARnQU1BAACxjwv8YQUAAAAJcEhZcwAADsMAAA7DAcdvqGQAABeNSURBVHhe7Z1faBxHnse/l4d9OEZ38Xi9wWykRUYBxyZmstzawUbm1iCbud2HyPLDGQdEojjOSwgo0nMU9mmRbQh5seLYjo4Y34Nk5yGLcAR+sLGJFdgMDnYMGeK9UY6Q9WaUO83ew3JwV7/6013d09OakXosS/p+oNF093RVdfWovv371a+q/m779u3/B0IIIYQk8oT9SwghhJAEKJSEEEJIChRKQgghJAUKJSGEEJJCe4Ry+9O4d/x5vd3e+xN7sH0Mn5/F7Ow5DNv9tc8wzsXvZ+QcZs8vcYcD47gyK3VxBeMD9hghJCMGMfDeHYxdkO0mBvbawySR/e9IPX2M/XZ/LdMGoezAJ71/j9sff4EdZ7/Anlt/s8cfP46MX0kQnyMYv6LE5sq4+mQRkfL324kWu15UzwzhtD2kOTmD0qYizo3Y/TpUuV/qQflMH/r6+jE6bQ8Tsl7Z+wFGtGg1EK6jH9tzanvvA3Tbw8tnEtNv7MLYy5cxb4+sX8KXgpE3B+2x1aX7zZsNn2VwLrNnHSV7odz+j9i2uIDrD+3+I+D0KyIOMWFpgq7NOVTuxa/qQj5XQw092GOtsiNP5VEr38aU2W0jypJ8vYDq1SShm8LozQq69jUQ7IE9qsRl3KZAkg3BGIaOP4sHZ0W41Hb2K3QfD60X3XAeBK7JOdneeBUP7DmyFKpuL7yFJ2+dwpc1e2gZXH9b6v5FXLf7K0Gs08H8LCZLi/aIh3ohGuz5CpP2WU+Wn8XgO2P2ZDZkPo7yd//yPA7+eLd5S1KstR13MfFDL04UcvpQrTSB/lGRJbHujgE3y+g5VIA5W8GMFUWxCM01NZTORMVF3LE7702guu8ETLLhd+RcsVN/zcOmKxbdS0B5oYD8vT4MnXRpmc+mTC5Ngy7vZ3v0dTfKPSiqk5VSCfmCKnOthIn+USOykrYSQndp5apL0yD59P7g7j0JccmKtZkgpLYe+15p9XWBkLWHCKE0nGNvmwZR7xc6MP/pLpy7JNbQa8ClfZi+pU+3hliqx3cH/6e10imcfHfS7gkiJH348Ww8fcn3LTwXXDiHSU+gpbE/0GV3sIgv3fU6v59izolKbF+ue+b+ZeDgYZhm6xv1AhAKUCTdZvNsCnM/3eX4/acgVvzBbXZHEStP/Hxd3drz5jnaYx76OYsoBmmaMj55y33fPYNoHa2UjCzKDnxi+yQHfq72du7Unz/Zbk8vRWcRJzbfUFahsgyvVpDr2WOtJrHucigcyuOGnOubQKnWhZ3iflSiU8RFeyyHfMTWPoKtm9TVh04gf1Ou68PMfPgdbYGeKSnpFHE0551FeuSFHuQWvsPtH2ro2iFu2WHs7Kyhqp+KEcme8oS9RvKuofyZFbZcAb2qTDPzKu+CKrPOwyJCpoT0ostP3WfEOlT309tZwY2GIpnO8I6uBOuYkPVJZ74DNfNPGVgb1yrApp8NKqHpRXfuIfArzx3XrIVhRXJBNdTaElVbcyIRioq77lp1d2jZqHR355Vo2HNjL7cm4p0HC/japVvZht3WHSrCsbsa5inW1IBzla4wz2Vx6cWgLGNn58L2T6PqaO8WJdauPM3WbRrdeDK3iB//Qz47S1hc41uwJcM+5IyEchG/PfsFdtxQP87FbzEun9X22/v2dAri1lSvFZhIsoQGtiKvLUHnVp3CaL+1wqZHMaRFRcS0grueZeYQS89ZgVs3ObGzdOeVtVdVUhnFuWOnPiuj1rkTw7oMVXwnFtxIEQWUcNGJmbg7c/acTk/OQYt05aoqsxxTojslArtPvdYpIT2hg23UpsS/9JG1NBVaoOfvtuw+1v2sKr3Q4iVko9CtxOmOEQprWYZsU2fftw3yKXyZP4yho/ZUCt2/eha5yuVEayYdabC/wZzX8F+//w2Qf9r0l936Fgs5JZzLDAKqla4E1pG4NI3ADOKXPR2qWXkreCEQqzrnLIIV5pk9k3hY7cBzx1P6Pa3Qtlz/v5D+arHyl3FtE2TaR/m7bVuwWPkvXLD7zaCF6aYnGCKcWlwUIjTzN9IDU0Z2oisueFrAfOtMxNQKmiW539ET1OnbKNfy2PqClMEIWPwaLW427/BcKNz62A9y1vR7lnSgjdui7lOpB/PdFHzRtkyN9qu0ZoBD6ynql5B05quLSiAOa5ebE40t0nT82QmVL1rSQFtrc9UYwzkt2u8DR42oNSPcSyPu1NBC01vw0tCuPJeP6bfchWm81pql35AH+LGmxPeguKqdK/tpbMJDPMzQes5QKDvw/M//intftxLl6rs1FQPjOFYASn8wdlUoNI2R7zhhHR63rsy4tZggpiJM9fiCOoXvFnIoFLoiZchttg7/kXOmf9RajHt6cqh+r0ohYqbz8o5p4u7h1mlodQZ5ErIxePD5V6gpMfzaWQ9H+3W/lN6/dQMPatvwTCAKY3ima1FdE1p7jdDpdvUtwwKTBjt0iRo34zb18qzKYo8YTOSsBKVEhdu5CtV1R8P+0XSshXZ0qSjPRnmuBHFzKqFbZoTpg3f3Gdess7gdNlK5eUGfxB/Li0ClFPbZHlL15+1nQXZCuZxoV20hKTF63bojX5fhDc7SigtNMlPfq1fFzqJxP35vLFNfPIX4vnD6XkW9kZ4w+boxizFBle8IrgzGHWvymt1XxUyp5lmM1opUYoaYZalSwpD0SR6y9ylby8NNhlH0XiIiBC5eQjYIt17FyU+BA9JYy6YjXF3whhKGS3PYdNCeu3AY+LTJ/jmd7kPtHjTX+m5CKw4qvU5lGJjvOLemiNFlLARu0LfwXPVy2AdnBcBtEpAy7c6pPOcqLj3Xx9Yc198+hS8h7tUw7UBk0vJMRfpbTVkkMMm5dldujbr6s5tELV9qLhpZRzHLPRQ6VIHs/VprVET3Gg4H6R7A5QRX/MrIKOr1J7jwrzuxo9JCtKsgAS5KcIKo0I1Mal2EQURJEbHST3kMF1OiZQkh5BEjQr33L9Go1zXKioVShoNIpKsO4vn3hy31T+rhHRLtyiENCiOGEqUbD8rRw1kw07Celh5WQsj6QiwH8nghfY8+emiKte5W43n96f7n+PD3Q3ZvZazqepTR8YlEj7OUISSeVdmUtRiMzwzHmBJC6omOK4xSP15ynWKHwCT3g65s/GHamM61DBduJoQQQlLIdHgIIYQQst6gUBJCCCEpUCgJIYSQFCiU6wKJmJ1NWYJrmUiQkBtj2iYkoCup3G5qPr35S6HpMs3iynhro1DXE1JnG+H+G/02CHnUUCjXBWaKvMhctlkQn+EoU4y4y7CWeNSzHjbUU8aEm+6v7cOHGr1oyGotUaHWAr7UAtptxUz4v9REHMsh+d5M3azG+qyn/1BCnlMzkscACuV6IGEO2CxImtEoK4bPn0BhYSZh2IuZkcmf/zfC9Cj6lXhmO2bUn0XJQ08NWDOT49tDyWuYPkra9FKkSL43k9+qrM+qnvWN+S70bmDvAXk84PCQ5SBv1IfCwVj+upLiLgrXuvTGNco1DdfdVARjIS3z/gQDZjKCYA1Mf41LwaadbHmJVVRUzZ0hkucSpI5zTamDunvRK8B4k8DLtQ1nIWq05qZ3H5G6EaR+Gq9bWld/wblo3QS49HW9VlHa1AN8JOWx+ejP6nuN7rPbPI8ZFNVvQR0rVfWcwX65tdUcFKiF8a+SZ2ysbUj8PqPPO/rbDJ9J9LjDlsnmtxrrs2oa/lbss6v7LRCSPbQoW0S7p+QfN1gFJPzn1g2OzKBjj894b8PaOouvu+kmWJd/ej3PbZhm+M9vGqLIGpgooOi5CWUtysTJ46Uhmt2Juy7NMyWgUFS5NUNswnofLZJQDalN119bUzd+3r3oNTl9a1fdz76ueotRl1X6JEW4vPl/rYtv+Ly9D5UXNm01eQWI1dNg3VKFWK9h/cnmROk0htT+RKlmRMydt3Vv6vW2nhy/5wWVo7+sWtJ91sq47e5TPWtZOFzWSi30qN+LlNsivxOZRMLl5/9OlsKtl9pIJButlSq/W/+36a9e81iuz9okS664Q0gGUChbwk5M7q0jGaD+8YuboutqVlTjEoqhwlt3U7uvgn/yCqrSoL5+BePWveU4Mn4s5qKUVU2A/FOuSWncZzX8G3lb70JRC5Da1Nt7VdbJtOdTaejOVaIua2kGa4QqHlRRy+W1ZSZ5onQxaITrVjyxS6DVuTmtS1ULodSTa0CtJXH6FdtwJ7n9dFnFQnJl8tYtVejnUDjRMAAmeYkzs+SaNPp6An1ZTNzrs028Tytg+qVICe/QSeO2lN8L3PNWAturrLdwQn71cqV+N8Eap0vQcDm2tLVSFcHiAY36Vxv0Rzt37KNen3VpzEtOti54QpKhULaCXl3Esxo8dOMYedO3fW26z6e+300aoFDcTMPe13cReEkajlAw6xtG80YfvLVrayrJ8jMCKu4s87ZvtjrXViMaBfIkCGgohqG42DP6viPlb5SuJVEIAxqsKCNppqxbatbs7FO2zTHdKEcFM15mh9Srvc+Td1FRLwJ7grKl36cTF9PHaX4vwfO2AuJ7JNzLwNKYZ5r0UhSvN/1M/Ho+OWTyurfTCFNMMJPr3dyn/m094vVZHXJNu/rJCWkWCmUraMspDGqow3MJaktQvW3PaGGKi1kjt6YIpnHX+WtX+lbp8Hnpl/FEISZcw+ejVmloeSYh/Tyq0UyIYIw2UOp7ke+oBtPloSwkfw1RVdqg7DpgJ9dKhGYDIQzw6lHlO25dq2EDnI4IprhZI1a+TtN+9NEi54RGLP4uFNTNhGVrdJ/esw0sqNjzttZ3Q8Qt6b0shUR/R+JO9SN1k9dKjSGCmeC+FiGvR/Jzv63VWJ/VXFMfYCQu3+TfLSHtgELZCtOjuCjdfK7/TG2uoZoavaj7Dp0rSQ9vCIIWYlZYZN/+09vrZmdNn4+z/E6/MoOKWwNTbXWriOg3/dC9uvOeezNXovuRFDZ08QXrbjZBZO1N6ed09xKvg8gaolO4Xa4F6272/lBSDWSCm7Uh8ReKOM5FrdJ/Cbit000XV92nHNy/fS5+/Snb6O68TVO+Yy0t35Xq7ksCYEzZ4vc5o/vm9DktDMaKlD7OuGUpQiV9koE7XG3JLuEkIYmWVfo53e+k8VqpCi28YX66fzlmxT6W67Na16552SRk9WDUK2kf0kDXRSyKFZsU1arQATISkNNkP+p6JbHeNhhBsFSSSzYMImIfJXkU0KIk2SGNW9D3ZQI26vu9TivLQ1mkv6m3bXXwkR/4s9GQ+rPW2YYWSXmZ0oFn9SIpEcPidZF1WymS5FFBi5JkSmRMXsMxbmIRhOMRg2v8MXZkgxL9bRDyOEChJIQQQlKg65UQQghJgUJJCCGEpLDmhdKF/2/kZZcIIYS0jzUvlHrWlZbmMCWEEEKaZ/24Xv3pugghhJCMWB9CGUwVRgghhGTLuhBKPS8pIYQQ0gbWhVBKP6UsktvKXKaEEEJIM6wDoTSTisuK6+GCvIQQQkg2rH2hbLQQMCGEEJIBa18o9aK9G3gibUIIIW1lzQtls4v2EkIIIcthjQvlMIoFoPwZB4YQQghpD2tUKE0Az+xsEfnSRS7HQwghpG1wmS1CCCEkhbUfzEMIIYS0EQolIYQQkgKFkhBCCEmBQkkIIYSkkEkwz+7du+0nQggh5PFkbm7OfmoNRr0SQgghKdD1SgghhKRAoSSEEEJSoFASQgghKVAoCSGEkBQolIQQQkgKFEpCCCEkhfUhlCPnMDs7i3Mjdr9p7CokV8bVJ0IIWQFHP8bYhTtme2fMHiSJ2LoaOmr3H3NoUWaKEd7WBZsQki1jGHKildgg++dvYmCvPbwSLr2IsZd3YbK0aA+sX7rfvGnq7r0P0G2PrRr+C4rdshZgTjiQKSKUJ5C/2Yehk/YQIeQRM4iB997Ck7d24dwl2RdR7MOPZ/dh+pba3fsBRo7vxsKn7ny2iIgM5mcx9vb6tCr3v3MHB3AZk9U+DPZ8hck3XsUDe25VEKHc+5e2liM7oRT356EuuwPUShPoH51Sn4ZxbrYX1TP9doHl2L5ct+MuZlBEsVPOA5WrTmjku0WEqVYw0zeE0/pz/FwNpSCPdI6MX8GJQs7uKeZn0PeKSTU9T0XsPgW514s4Fk1T45VpYBxXXi8g+EathIn+UUgN6XMvATfKPSjaNML6I4S0RLzhlP2D29T/1CmcfHdSC9kA3tefl4MWiqAJ+AbXXn4R1+2e0EgoU6+zZXS4staJfHxfrttewjUcDtKe914AdFkKHWan6TybQ6fdklBK2Q/DNvOKRXwZ3JfCvsAEbWTlcqwO7fXx4/Hn3QYycr0qS2pfXolCH/r6zNZSI99ZxM579tqrFXTtc32GpzFk05NtopRH77jrTfTPTaBUs4ebYGq0P0hT8ouSkqcI2qHwPickUyWycq8mTVMOEXpzvSfc06Po99KdWSig6Ltoc2p/8w1z/kwJKBSVZBNCWqX7Z1uA6re60ZTGXBrRa6VF5PLiJBzEL3s6sIBejASuuo+xX1+5NFrs8nOYfHmXdrOOxUSyEc4KM9eIe3YLDgRuS2UB792iRMOluas1Ee86jGfu22s//QadSnB0ukpAtGDbNMc+BQ4EfacrzHNZjOGcK8vLp/BlrM3ef8hY+UF5W7HIc7sx6J5nG9zBGQnlFL5byKHw+iyuBELWAsq6mnGuypND6HOWlu3zk0Ad2cRiy22OWnPZ02Kem7ZaUV8KsVTDdMV6zj/lX6ksV2fVTt9GuZbH1gGzSwhpHREnLRTK0pi3xxydPerfzDbIWrSaCr4ZwzNdygq61KrlMogteXXd1TCPB59/hVrup9a6msTDageeO34HI28O6iMtUZvDNedCln5Sa1nt366sRSWiQd+dWI/5p62IrDDPNjBfXUTnQVXOhs/CCm1cQG3fcCDAUKKZcTBVZsE8p18xlpK4ILUYnF+5PXRk/BgKKGHCWmHagmszqXlqATMvBEZEq5gJRD2d4fNFdImL16Y7E//PJYRkwoM/P9QCsbt6KmhUO/MdqFVDeZu/FYqd/n4gIKvD9bdNQz+N14yoZdTQixs2FBG1ee7JduW5XB68u8+U8X5hBZbhJP5Yzj6YKvOoV+2CPFNCLWJp5aC9HgotGObjknRtzgEL31khGg7679pJap4jRRQWQrHr8/suNWJZxy1F4Qi2blIvfj9YN+/AOHpDR309kg/KuN1EfyshJMalkrIgF5XVZl2Jez/AbmUJmn3TkHZuD0VBLK9a+UYTVuIYvq4oK+xQq4JirTfvOnEz5iqlOretFouzc6hFhLsDT/7CfNr/jt/Hl46x0JZ2KyfnuRIkmEoJXQsu7QjaQryM+cDidkgf5VKCPoYDhQ7M389W9DMK5kkPrPGDZ2qlGZR7eoGPvGCefdUwsMUnEgCj0ixVUdh81wu8cYi79FiYZivYYKIgzdQ8TVRrVK9jwT7x6/2gpSAIqKLSzaNH2d+6LzdyjRBLkxDSGpHAkFjQiG7I38Jz7h+uLmgkjdi1XoBMNHDGEqQdu6425wWfpAe5+OnWSpfxoKdPiYkXzJMSyBINIJLr/SChlMCaFNLvU3D3Wh/oFCLfeS28j7p6NdZwNCo5JZjHC0qqv27lrJPhISLUfmRt82gRlyCaOvFNoE7UjXD2lFcYoaqFMo8bFEdCyIZARM+P5n28WR9Cqa01LMMKa03otKj2lD2hNJY0guEsy4RCSUhmDJ+exT9sesrukccB6XuMoK1AaIvzwIU79mC2/On+5/jw90N2b2WsXaGMuDKjrt50Yu7TyBjKpah3vWYy3pFCSciqk+hSdLTknl3LxF2yPs27ZxOJuEhXmNYjZp24XgkhhJD2wLleCSGEkBQolIQQQkgKFEpCCCEkBQolIYQQkgKFkhBCCEmBQkkIIYSkQKEkhBBCUqBQEkIIISlQKAkhhJAUKJSEEEJIChRKQgghJAUKJSGEEJLCE93/dBi5zd7KnoQQQggJUELZj39+9TzFkhBCCEngievnT+CvC/+JXx//ELn80/YwIYQQQoQn/vdv/4PrF07gvx9+g1+/9m8US0IIISQA+H+xJKqJPBhDkAAAAABJRU5ErkJggg==;" vertex="1" parent="1">
                    <mxGeometry x="80" y="950" width="458" height="90" as="geometry"/>
                </mxCell>
            </root>
        </mxGraphModel>
    </diagram>
</mxfile>